<svg width="342" height="280" viewBox="0 0 342 280" fill="none" xmlns="http://www.w3.org/2000/svg">
<mask id="mask0_1492_15986" style="mask-type:alpha" maskUnits="userSpaceOnUse" x="0" y="0" width="342" height="280">
<rect x="0.5" y="0.5" width="341" height="279" fill="#E8E8E8" stroke="#C2C2C2"/>
</mask>
<g mask="url(#mask0_1492_15986)">
<path d="M315.744 251.858C348.944 234.128 351.115 148.181 286.906 128.063C222.701 107.946 234.597 57.1804 180.579 19.2328C131.337 -15.3572 49.8794 13.9645 22.7476 103.92C3.40056 168.064 25.9753 248.528 41.3804 251.858C191.181 251.858 315.744 251.858 315.744 251.858Z" fill="#E9EFFF"/>
<path d="M341.61 252.753C341.61 253.543 340.895 254.18 340.014 254.18H-1.42384C-2.30553 254.18 -3.02051 253.543 -3.02051 252.753C-3.02051 251.968 -2.30553 251.327 -1.42384 251.327H340.014C340.895 251.327 341.61 251.968 341.61 252.753Z" fill="#3E3D51"/>
<path d="M287.273 154.461C291.432 161.796 288.824 171.1 281.447 175.235C274.069 179.374 264.717 176.777 260.558 169.442C256.399 162.102 259.008 152.803 266.385 148.664C273.762 144.525 283.114 147.122 287.273 154.461Z" fill="#FAFAFA"/>
<path d="M285.124 155.665C288.614 161.822 286.425 169.629 280.235 173.102C274.045 176.571 266.197 174.396 262.707 168.235C259.217 162.078 261.406 154.272 267.596 150.802C273.786 147.329 281.634 149.508 285.124 155.665Z" fill="#ADB7EF"/>
<path d="M280.711 168.333C280.874 168.792 280.687 169.301 280.265 169.545C279.44 170.028 278.182 170.529 276.739 170.74C274.629 171.041 272.448 170.64 270.691 169.338C269.593 168.519 268.695 167.287 268.189 165.831L266.942 166.013C266.518 166.075 266.125 165.782 266.063 165.36L266.059 165.327C265.998 164.905 266.292 164.517 266.715 164.455L267.738 164.306C267.655 163.963 267.591 163.743 267.563 163.553C267.517 163.235 267.493 162.85 267.497 162.424L266.442 162.577C266.018 162.639 265.624 162.346 265.563 161.924C265.501 161.502 265.795 161.114 266.219 161.052L267.498 160.865C267.637 159.352 268.15 157.946 268.97 156.855C270.364 154.998 272.46 153.915 274.666 153.596C275.952 153.414 276.959 153.493 277.752 153.658C278.303 153.77 278.665 154.299 278.571 154.849L278.568 154.87C278.47 155.44 277.921 155.817 277.346 155.717C276.693 155.602 275.899 155.564 274.94 155.701C273.533 155.904 272.191 156.553 271.23 157.797C270.683 158.525 270.296 159.455 270.28 160.464L277.475 159.427C277.899 159.369 278.292 159.658 278.353 160.08C278.415 160.502 278.121 160.894 277.697 160.956L270.183 162.04C270.202 162.391 270.221 162.747 270.253 162.97C270.295 163.255 270.337 163.541 270.424 163.921L277.954 162.834C278.387 162.772 278.789 163.069 278.852 163.499C278.914 163.929 278.614 164.331 278.182 164.393L270.971 165.43C271.329 166.324 271.893 167.051 272.552 167.543C273.865 168.49 275.209 168.751 276.808 168.519C277.782 168.379 278.633 168.081 279.301 167.758C279.85 167.494 280.509 167.762 280.711 168.333Z" fill="#FAFAFA"/>
<path d="M257.613 203.159C260.986 214.443 250.786 224.586 239.442 221.232C235.5 220.066 231.267 215.857 230.095 211.933C226.723 200.653 236.923 190.506 248.265 193.859C252.209 195.025 256.441 199.235 257.613 203.159Z" fill="#FAFAFA"/>
<path d="M255.946 207.319C256.073 214.146 250.485 219.703 243.623 219.575C237.156 219.455 231.88 214.208 231.76 207.774C231.632 200.951 237.221 195.39 244.082 195.518C250.549 195.638 255.826 200.885 255.946 207.319Z" fill="#ADB7EF"/>
<path d="M244.829 216.419C244.374 216.419 243.944 216.147 243.763 215.702C243.527 215.118 243.812 214.452 244.4 214.217C246.206 213.494 247.689 212.534 248.689 211.438C249.474 210.578 249.935 209.668 249.987 208.876C250.013 208.486 249.948 207.969 249.49 207.711C248.845 207.349 247.421 207.47 245.364 208.897C244.871 209.239 244.196 209.144 243.817 208.681C243.437 208.217 243.482 207.541 243.918 207.13C244.934 206.175 245.674 205.295 246.117 204.512C246.425 203.969 246.585 203.479 246.577 203.096C246.571 202.82 246.481 202.604 246.307 202.453C245.978 202.168 245.27 202.222 244.792 202.569C244.274 202.945 243.875 203.606 243.574 204.588C242.972 206.549 241.424 211.589 241.424 211.589C241.27 212.089 240.802 212.446 240.277 212.421C239.756 212.396 239.323 212.05 239.214 211.544C239.162 211.379 238.65 209.918 235.862 205.47C235.527 204.934 235.691 204.231 236.23 203.897C236.768 203.563 237.475 203.727 237.811 204.262C238.829 205.887 239.564 207.143 240.093 208.106C240.552 206.613 241.081 204.891 241.378 203.922C241.83 202.449 242.504 201.404 243.438 200.725C244.049 200.283 244.804 200.021 245.563 199.989C246.422 199.953 247.222 200.217 247.817 200.734C248.48 201.309 248.855 202.133 248.874 203.052C248.888 203.748 248.699 204.494 248.311 205.274C249.18 205.204 249.967 205.357 250.62 205.723C251.754 206.359 252.375 207.594 252.28 209.026C252.194 210.331 251.523 211.733 250.39 212.973C249.158 214.323 247.384 215.485 245.259 216.335C245.118 216.391 244.973 216.418 244.83 216.418L244.829 216.419Z" fill="#FAFAFA"/>
<path d="M98.6321 89.6272C98.8816 97.4252 92.4775 103.797 84.641 103.547C77.5437 103.321 71.7636 97.5715 71.5374 90.5112C71.2867 82.7132 77.6914 76.348 85.5279 76.5919C92.6246 76.8175 98.4053 82.5669 98.6321 89.6272Z" fill="#FAFAFA"/>
<path d="M96.4539 89.6995C96.6635 96.2415 91.2892 101.589 84.7135 101.375C78.7581 101.186 73.9079 96.3634 73.7179 90.4372C73.5076 83.9012 78.882 78.5542 85.4583 78.7615C91.413 78.9505 96.2633 83.7732 96.4539 89.6995Z" fill="#ADB7EF"/>
<path d="M81.5628 97.333L82.21 95.5588C81.4169 95.2295 80.6807 94.7966 80.1058 94.3454C79.6258 93.9735 79.5198 93.2967 79.8637 92.7968L79.9048 92.7358C80.283 92.181 81.0553 92.0652 81.5775 92.4798C82.1114 92.9066 82.7537 93.3028 83.4892 93.565C84.5601 93.9491 85.4427 93.8028 85.7149 93.059C85.9742 92.3457 85.5359 91.6811 84.3161 90.7117C82.5508 89.3155 81.5205 87.8888 82.1806 86.0719C82.7801 84.4257 84.4154 83.5599 86.5687 83.8891L87.2166 82.1149L89.0579 82.7795L88.4584 84.4257C89.1302 84.7001 89.6586 84.9927 90.0827 85.2914C90.6013 85.6512 90.7288 86.3584 90.372 86.8767C90.0043 87.4132 89.2614 87.5412 88.7349 87.1571C88.3407 86.8705 87.8326 86.5657 87.1694 86.3279C85.9472 85.8889 85.3624 86.2669 85.1718 86.7913C84.9468 87.4071 85.4611 88.0412 86.8402 89.2118C88.7906 90.8032 89.3172 92.1566 88.7042 93.8394C88.098 95.5038 86.3971 96.4977 84.0991 96.0892L83.4047 97.9976L81.5628 97.333Z" fill="#FAFAFA"/>
<path d="M200.77 253.473H131.369C124.52 253.473 118.969 247.95 118.969 241.137V79.4835C118.969 72.6709 124.52 67.1473 131.369 67.1473H200.77C207.619 67.1473 213.172 72.6709 213.172 79.4835V241.137C213.172 247.95 207.619 253.473 200.77 253.473Z" fill="#292A64"/>
<path d="M199.684 71.0442H189.276C186.957 71.0442 184.884 72.495 184.102 74.6697C183.318 76.8443 181.247 78.2951 178.926 78.2951H153.218C150.896 78.2951 148.824 76.8443 148.042 74.6697C147.258 72.495 145.187 71.0442 142.864 71.0442H132.458C127.171 71.0442 122.887 75.3074 122.887 80.5665V240.057C122.887 245.315 127.171 249.577 132.458 249.577H199.684C204.971 249.577 209.257 245.315 209.257 240.057V80.5665C209.257 75.3074 204.971 71.0442 199.684 71.0442Z" fill="#FFFCFE"/>
<path d="M190.437 204.456H141.705C135.577 204.456 130.609 199.514 130.609 193.42V108.157C130.609 102.061 135.577 97.1208 141.705 97.1208H190.437C196.565 97.1208 201.534 102.061 201.534 108.157V193.42C201.534 199.514 196.565 204.456 190.437 204.456Z" fill="#E9EFFF"/>
<path d="M186.087 150.788C186.087 161.783 177.125 170.698 166.071 170.698C155.016 170.698 146.056 161.783 146.056 150.788C146.056 139.792 155.016 130.879 166.071 130.879C177.125 130.879 186.087 139.792 186.087 150.788Z" fill="#ADB7EF"/>
<path d="M156.644 153.695L160.978 158.009C161.742 158.769 162.982 158.769 163.748 158.009L175.496 146.322C176.261 145.562 176.261 144.329 175.496 143.569C174.732 142.807 173.493 142.807 172.728 143.569L162.362 153.877L159.412 150.942C158.648 150.18 157.408 150.18 156.644 150.942C155.878 151.702 155.878 152.935 156.644 153.695Z" fill="white"/>
<path d="M194.571 229.234H137.571C133.727 229.234 130.609 226.135 130.609 222.31C130.609 218.485 133.727 215.385 137.571 215.385H194.571C198.417 215.385 201.534 218.485 201.534 222.31C201.534 226.135 198.417 229.234 194.571 229.234Z" fill="#5781E6"/>
<path d="M90.5387 160.843H33.8425C32.1987 160.843 30.8662 159.519 30.8662 157.883V128.757C30.8662 127.122 32.1987 125.796 33.8425 125.796H90.5387C92.1825 125.796 93.5142 127.122 93.5142 128.757V157.883C93.5142 159.519 92.1825 160.843 90.5387 160.843Z" fill="#004BA8"/>
<path d="M93.5142 141.68H30.8662V133.918H93.5142V141.68Z" fill="#292A64"/>
<path d="M39.5967 148.22H84.7876V145.22H39.5967V148.22Z" fill="#FEFEFF"/>
<path d="M138.112 204.922H68.8451C65.8405 204.922 63.4043 202.499 63.4043 199.51V148.807C63.4043 145.819 65.8405 143.395 68.8451 143.395H138.112C141.117 143.395 143.553 145.819 143.553 148.807V199.51C143.553 202.499 141.117 204.922 138.112 204.922Z" fill="#4A4599"/>
<path d="M136.899 204.922H67.6322C64.6276 204.922 62.1914 202.499 62.1914 199.51V148.807C62.1914 145.819 64.6276 143.395 67.6322 143.395H136.899C139.904 143.395 142.34 145.819 142.34 148.807V199.51C142.34 202.499 139.904 204.922 136.899 204.922Z" fill="#292A64"/>
<path d="M133.764 204.922H64.4974C61.4928 204.922 59.0566 202.499 59.0566 199.51V148.807C59.0566 145.819 61.4928 143.395 64.4974 143.395H133.764C136.769 143.395 139.205 145.819 139.205 148.807V199.51C139.205 202.499 136.769 204.922 133.764 204.922Z" fill="#4A4599"/>
<path d="M62.7402 148.423H64.367C64.4786 148.423 64.5692 148.333 64.5692 148.222C64.5692 148.111 64.4786 148.021 64.367 148.021H62.7402C62.6286 148.021 62.5381 148.111 62.5381 148.222C62.5381 148.333 62.6286 148.423 62.7402 148.423ZM65.9947 148.423H67.6223C67.7339 148.423 67.8244 148.333 67.8244 148.222C67.8244 148.111 67.7339 148.021 67.6223 148.021H65.9947C65.8831 148.021 65.7925 148.111 65.7925 148.222C65.7925 148.333 65.8831 148.423 65.9947 148.423ZM69.2491 148.423H70.8768C70.9883 148.423 71.0789 148.333 71.0789 148.222C71.0789 148.111 70.9883 148.021 70.8768 148.021H69.2491C69.1376 148.021 69.047 148.111 69.047 148.222C69.047 148.333 69.1376 148.423 69.2491 148.423ZM72.5044 148.423H74.1312C74.2428 148.423 74.3333 148.333 74.3333 148.222C74.3333 148.111 74.2428 148.021 74.1312 148.021H72.5044C72.392 148.021 72.3023 148.111 72.3023 148.222C72.3023 148.333 72.392 148.423 72.5044 148.423ZM75.7588 148.423H77.3857C77.4972 148.423 77.5878 148.333 77.5878 148.222C77.5878 148.111 77.4972 148.021 77.3857 148.021H75.7588C75.6473 148.021 75.5567 148.111 75.5567 148.222C75.5567 148.333 75.6473 148.423 75.7588 148.423ZM79.0133 148.423H80.6409C80.7525 148.423 80.8431 148.333 80.8431 148.222C80.8431 148.111 80.7525 148.021 80.6409 148.021H79.0133C78.9017 148.021 78.8112 148.111 78.8112 148.222C78.8112 148.333 78.9017 148.423 79.0133 148.423ZM82.2678 148.423H83.8954C84.007 148.423 84.0975 148.333 84.0975 148.222C84.0975 148.111 84.007 148.021 83.8954 148.021H82.2678C82.1562 148.021 82.0656 148.111 82.0656 148.222C82.0656 148.333 82.1562 148.423 82.2678 148.423ZM85.5222 148.423H87.1498C87.2614 148.423 87.352 148.333 87.352 148.222C87.352 148.111 87.2614 148.021 87.1498 148.021H85.5222C85.4106 148.021 85.3201 148.111 85.3201 148.222C85.3201 148.333 85.4106 148.423 85.5222 148.423ZM88.7775 148.423H90.4043C90.5159 148.423 90.6064 148.333 90.6064 148.222C90.6064 148.111 90.5159 148.021 90.4043 148.021H88.7775C88.6659 148.021 88.5753 148.111 88.5753 148.222C88.5753 148.333 88.6659 148.423 88.7775 148.423ZM92.0319 148.423H93.6595C93.7711 148.423 93.8617 148.333 93.8617 148.222C93.8617 148.111 93.7711 148.021 93.6595 148.021H92.0319C91.9203 148.021 91.8298 148.111 91.8298 148.222C91.8298 148.333 91.9203 148.423 92.0319 148.423ZM95.2864 148.423H96.914C97.0256 148.423 97.1161 148.333 97.1161 148.222C97.1161 148.111 97.0256 148.021 96.914 148.021H95.2864C95.1748 148.021 95.0842 148.111 95.0842 148.222C95.0842 148.333 95.1748 148.423 95.2864 148.423ZM98.5408 148.423H100.168C100.28 148.423 100.371 148.333 100.371 148.222C100.371 148.111 100.28 148.021 100.168 148.021H98.5408C98.4293 148.021 98.3387 148.111 98.3387 148.222C98.3387 148.333 98.4293 148.423 98.5408 148.423ZM101.796 148.423H103.423C103.534 148.423 103.625 148.333 103.625 148.222C103.625 148.111 103.534 148.021 103.423 148.021H101.796C101.685 148.021 101.594 148.111 101.594 148.222C101.594 148.333 101.685 148.423 101.796 148.423ZM105.051 148.423H106.678C106.79 148.423 106.88 148.333 106.88 148.222C106.88 148.111 106.79 148.021 106.678 148.021H105.051C104.939 148.021 104.848 148.111 104.848 148.222C104.848 148.333 104.939 148.423 105.051 148.423ZM108.305 148.423H109.933C110.044 148.423 110.135 148.333 110.135 148.222C110.135 148.111 110.044 148.021 109.933 148.021H108.305C108.193 148.021 108.103 148.111 108.103 148.222C108.103 148.333 108.193 148.423 108.305 148.423ZM111.559 148.423H113.187C113.299 148.423 113.389 148.333 113.389 148.222C113.389 148.111 113.299 148.021 113.187 148.021H111.559C111.448 148.021 111.357 148.111 111.357 148.222C111.357 148.333 111.448 148.423 111.559 148.423ZM114.815 148.423H116.442C116.553 148.423 116.644 148.333 116.644 148.222C116.644 148.111 116.553 148.021 116.442 148.021H114.815C114.703 148.021 114.613 148.111 114.613 148.222C114.613 148.333 114.703 148.423 114.815 148.423ZM118.069 148.423H119.696C119.808 148.423 119.898 148.333 119.898 148.222C119.898 148.111 119.808 148.021 119.696 148.021H118.069C117.958 148.021 117.867 148.111 117.867 148.222C117.867 148.333 117.958 148.423 118.069 148.423ZM121.324 148.423H122.951C123.063 148.423 123.153 148.333 123.153 148.222C123.153 148.111 123.063 148.021 122.951 148.021H121.324C121.212 148.021 121.121 148.111 121.121 148.222C121.121 148.333 121.212 148.423 121.324 148.423ZM124.578 148.423H126.206C126.317 148.423 126.408 148.333 126.408 148.222C126.408 148.111 126.317 148.021 126.206 148.021H124.578C124.466 148.021 124.376 148.111 124.376 148.222C124.376 148.333 124.466 148.423 124.578 148.423ZM127.833 148.423H129.46C129.572 148.423 129.662 148.333 129.662 148.222C129.662 148.111 129.572 148.021 129.46 148.021H127.833C127.721 148.021 127.631 148.111 127.631 148.222C127.631 148.333 127.721 148.423 127.833 148.423ZM131.088 148.423H132.351C132.462 148.423 132.571 148.433 132.677 148.452C132.787 148.472 132.892 148.4 132.912 148.291C132.932 148.181 132.859 148.077 132.749 148.056C132.62 148.033 132.487 148.021 132.351 148.021H131.088C130.976 148.021 130.886 148.111 130.886 148.222C130.886 148.333 130.976 148.423 131.088 148.423ZM133.86 149.237C134.045 149.519 134.152 149.854 134.152 150.216V150.682C134.152 150.793 134.243 150.883 134.354 150.883C134.466 150.883 134.556 150.793 134.556 150.682V150.216C134.556 149.774 134.426 149.362 134.199 149.018C134.138 148.924 134.013 148.899 133.919 148.959C133.826 149.019 133.8 149.144 133.86 149.237ZM134.152 152.301V153.92C134.152 154.031 134.243 154.121 134.354 154.121C134.466 154.121 134.556 154.031 134.556 153.92V152.301C134.556 152.19 134.466 152.1 134.354 152.1C134.243 152.1 134.152 152.19 134.152 152.301ZM134.152 155.539V157.158C134.152 157.269 134.243 157.359 134.354 157.359C134.466 157.359 134.556 157.269 134.556 157.158V155.539C134.556 155.428 134.466 155.338 134.354 155.338C134.243 155.338 134.152 155.428 134.152 155.539ZM134.152 158.776V160.395C134.152 160.506 134.243 160.596 134.354 160.596C134.466 160.596 134.556 160.506 134.556 160.395V158.776C134.556 158.665 134.466 158.575 134.354 158.575C134.243 158.575 134.152 158.665 134.152 158.776ZM134.152 162.014V163.632C134.152 163.743 134.243 163.833 134.354 163.833C134.466 163.833 134.556 163.743 134.556 163.632V162.014C134.556 161.903 134.466 161.813 134.354 161.813C134.243 161.813 134.152 161.903 134.152 162.014ZM134.152 165.251V166.87C134.152 166.981 134.243 167.071 134.354 167.071C134.466 167.071 134.556 166.981 134.556 166.87V165.251C134.556 165.14 134.466 165.05 134.354 165.05C134.243 165.05 134.152 165.14 134.152 165.251ZM134.152 168.488V170.107C134.152 170.218 134.243 170.308 134.354 170.308C134.466 170.308 134.556 170.218 134.556 170.107V168.488C134.556 168.377 134.466 168.287 134.354 168.287C134.243 168.287 134.152 168.377 134.152 168.488ZM134.152 171.725V173.344C134.152 173.455 134.243 173.545 134.354 173.545C134.466 173.545 134.556 173.455 134.556 173.344V171.725C134.556 171.614 134.466 171.524 134.354 171.524C134.243 171.524 134.152 171.614 134.152 171.725ZM134.152 174.963V176.582C134.152 176.693 134.243 176.783 134.354 176.783C134.466 176.783 134.556 176.693 134.556 176.582V174.963C134.556 174.852 134.466 174.762 134.354 174.762C134.243 174.762 134.152 174.852 134.152 174.963ZM134.152 178.201V179.819C134.152 179.931 134.243 180.02 134.354 180.02C134.466 180.02 134.556 179.931 134.556 179.819V178.201C134.556 178.09 134.466 178 134.354 178C134.243 178 134.152 178.09 134.152 178.201ZM134.152 181.438V183.057C134.152 183.168 134.243 183.258 134.354 183.258C134.466 183.258 134.556 183.168 134.556 183.057V181.438C134.556 181.327 134.466 181.237 134.354 181.237C134.243 181.237 134.152 181.327 134.152 181.438ZM134.152 184.675V186.294C134.152 186.405 134.243 186.495 134.354 186.495C134.466 186.495 134.556 186.405 134.556 186.294V184.675C134.556 184.564 134.466 184.474 134.354 184.474C134.243 184.474 134.152 184.564 134.152 184.675ZM134.152 187.913V189.531C134.152 189.642 134.243 189.732 134.354 189.732C134.466 189.732 134.556 189.642 134.556 189.531V187.913C134.556 187.801 134.466 187.712 134.354 187.712C134.243 187.712 134.152 187.801 134.152 187.913ZM134.152 191.15V192.768C134.152 192.879 134.243 192.969 134.354 192.969C134.466 192.969 134.556 192.879 134.556 192.768V191.15C134.556 191.039 134.466 190.949 134.354 190.949C134.243 190.949 134.152 191.039 134.152 191.15ZM134.152 194.387V196.006C134.152 196.117 134.243 196.208 134.354 196.208C134.466 196.208 134.556 196.117 134.556 196.006V194.387C134.556 194.276 134.466 194.186 134.354 194.186C134.243 194.186 134.152 194.276 134.152 194.387ZM134.152 197.625V198.104C134.152 198.462 134.047 198.793 133.866 199.073C133.806 199.166 133.833 199.291 133.927 199.351C134.02 199.412 134.146 199.384 134.206 199.291C134.428 198.949 134.556 198.541 134.556 198.104V197.625C134.556 197.514 134.466 197.424 134.354 197.424C134.243 197.424 134.152 197.514 134.152 197.625ZM132.687 199.865C132.578 199.886 132.466 199.897 132.351 199.897H131.099C130.988 199.897 130.897 199.987 130.897 200.098C130.897 200.209 130.988 200.299 131.099 200.299H132.351C132.491 200.299 132.629 200.286 132.762 200.261C132.871 200.24 132.944 200.135 132.923 200.026C132.902 199.917 132.797 199.845 132.687 199.865ZM129.472 199.897H127.845C127.733 199.897 127.643 199.987 127.643 200.098C127.643 200.209 127.733 200.299 127.845 200.299H129.472C129.584 200.299 129.674 200.209 129.674 200.098C129.674 199.987 129.584 199.897 129.472 199.897ZM126.218 199.897H124.59C124.479 199.897 124.388 199.987 124.388 200.098C124.388 200.209 124.479 200.299 124.59 200.299H126.218C126.329 200.299 126.42 200.209 126.42 200.098C126.42 199.987 126.329 199.897 126.218 199.897ZM122.963 199.897H121.336C121.224 199.897 121.134 199.987 121.134 200.098C121.134 200.209 121.224 200.299 121.336 200.299H122.963C123.074 200.299 123.165 200.209 123.165 200.098C123.165 199.987 123.074 199.897 122.963 199.897ZM119.708 199.897H118.081C117.969 199.897 117.879 199.987 117.879 200.098C117.879 200.209 117.969 200.299 118.081 200.299H119.708C119.82 200.299 119.91 200.209 119.91 200.098C119.91 199.987 119.82 199.897 119.708 199.897ZM116.454 199.897H114.826C114.714 199.897 114.624 199.987 114.624 200.098C114.624 200.209 114.714 200.299 114.826 200.299H116.454C116.565 200.299 116.656 200.209 116.656 200.098C116.656 199.987 116.565 199.897 116.454 199.897ZM113.199 199.897H111.572C111.46 199.897 111.369 199.987 111.369 200.098C111.369 200.209 111.46 200.299 111.572 200.299H113.199C113.311 200.299 113.401 200.209 113.401 200.098C113.401 199.987 113.311 199.897 113.199 199.897ZM109.944 199.897H108.317C108.206 199.897 108.115 199.987 108.115 200.098C108.115 200.209 108.206 200.299 108.317 200.299H109.944C110.056 200.299 110.146 200.209 110.146 200.098C110.146 199.987 110.056 199.897 109.944 199.897ZM106.689 199.897H105.063C104.95 199.897 104.861 199.987 104.861 200.098C104.861 200.209 104.95 200.299 105.063 200.299H106.689C106.801 200.299 106.892 200.209 106.892 200.098C106.892 199.987 106.801 199.897 106.689 199.897ZM103.435 199.897H101.807C101.696 199.897 101.605 199.987 101.605 200.098C101.605 200.209 101.696 200.299 101.807 200.299H103.435C103.547 200.299 103.637 200.209 103.637 200.098C103.637 199.987 103.547 199.897 103.435 199.897ZM100.181 199.897H98.553C98.4414 199.897 98.3508 199.987 98.3508 200.098C98.3508 200.209 98.4414 200.299 98.553 200.299H100.181C100.292 200.299 100.383 200.209 100.383 200.098C100.383 199.987 100.292 199.897 100.181 199.897ZM96.9261 199.897H95.2985C95.1869 199.897 95.0964 199.987 95.0964 200.098C95.0964 200.209 95.1869 200.299 95.2985 200.299H96.9261C97.0377 200.299 97.1283 200.209 97.1283 200.098C97.1283 199.987 97.0377 199.897 96.9261 199.897ZM93.6709 199.897H92.044C91.9325 199.897 91.8419 199.987 91.8419 200.098C91.8419 200.209 91.9325 200.299 92.044 200.299H93.6709C93.7825 200.299 93.873 200.209 93.873 200.098C93.873 199.987 93.7825 199.897 93.6709 199.897ZM90.4164 199.897H88.7888C88.6772 199.897 88.5866 199.987 88.5866 200.098C88.5866 200.209 88.6772 200.299 88.7888 200.299H90.4164C90.528 200.299 90.6186 200.209 90.6186 200.098C90.6186 199.987 90.528 199.897 90.4164 199.897ZM87.162 199.897H85.5343C85.4227 199.897 85.3322 199.987 85.3322 200.098C85.3322 200.209 85.4227 200.299 85.5343 200.299H87.162C87.2736 200.299 87.3641 200.209 87.3641 200.098C87.3641 199.987 87.2736 199.897 87.162 199.897ZM83.9075 199.897H82.2799C82.1683 199.897 82.0777 199.987 82.0777 200.098C82.0777 200.209 82.1683 200.299 82.2799 200.299H83.9075C84.0191 200.299 84.1097 200.209 84.1097 200.098C84.1097 199.987 84.0191 199.897 83.9075 199.897ZM80.6523 199.897H79.0254C78.9138 199.897 78.8233 199.987 78.8233 200.098C78.8233 200.209 78.9138 200.299 79.0254 200.299H80.6523C80.7638 200.299 80.8544 200.209 80.8544 200.098C80.8544 199.987 80.7638 199.897 80.6523 199.897ZM77.3978 199.897H75.7702C75.6586 199.897 75.568 199.987 75.568 200.098C75.568 200.209 75.6586 200.299 75.7702 200.299H77.3978C77.5094 200.299 77.5999 200.209 77.5999 200.098C77.5999 199.987 77.5094 199.897 77.3978 199.897ZM74.1433 199.897H72.5157C72.4041 199.897 72.3136 199.987 72.3136 200.098C72.3136 200.209 72.4041 200.299 72.5157 200.299H74.1433C74.2549 200.299 74.3455 200.209 74.3455 200.098C74.3455 199.987 74.2549 199.897 74.1433 199.897ZM70.8889 199.897H69.2613C69.1497 199.897 69.0591 199.987 69.0591 200.098C69.0591 200.209 69.1497 200.299 69.2613 200.299H70.8889C71.0005 200.299 71.091 200.209 71.091 200.098C71.091 199.987 71.0005 199.897 70.8889 199.897ZM67.6336 199.897H66.0068C65.8952 199.897 65.8047 199.987 65.8047 200.098C65.8047 200.209 65.8952 200.299 66.0068 200.299H67.6336C67.7452 200.299 67.8358 200.209 67.8358 200.098C67.8358 199.987 67.7452 199.897 67.6336 199.897ZM64.3792 199.897H62.7523C62.64 199.897 62.5502 199.987 62.5502 200.098C62.5502 200.209 62.64 200.299 62.7523 200.299H64.3792C64.4908 200.299 64.5813 200.209 64.5813 200.098C64.5813 199.987 64.4908 199.897 64.3792 199.897Z" fill="#292A64"/>
<path d="M121.889 181.799H143.013C144.743 181.799 146.146 180.404 146.146 178.683V169.635C146.146 167.913 144.743 166.518 143.013 166.518H121.889C117.647 166.518 114.208 169.939 114.208 174.159C114.208 178.379 117.647 181.799 121.889 181.799Z" fill="#6F61B6"/>
<path d="M126.943 174.16C126.943 176.408 125.11 178.231 122.85 178.231C120.589 178.231 118.756 176.408 118.756 174.16C118.756 171.911 120.589 170.088 122.85 170.088C125.11 170.088 126.943 171.911 126.943 174.16Z" fill="#292A64"/>
<path d="M96.157 189.77H46.1208C44.4779 189.77 43.1445 188.445 43.1445 186.809V157.684C43.1445 156.048 44.4779 154.723 46.1208 154.723H96.157C97.8008 154.723 99.1341 156.048 99.1341 157.684V186.809C99.1341 188.445 97.8008 189.77 96.157 189.77Z" fill="#5781E6"/>
<path d="M52.7375 169.521H48.2904C47.7697 169.521 47.3477 169.101 47.3477 168.583V165.768C47.3477 165.249 47.7697 164.829 48.2904 164.829H52.7375C53.2582 164.829 53.6811 165.249 53.6811 165.768V168.583C53.6811 169.101 53.2582 169.521 52.7375 169.521Z" fill="#FEFEFF"/>
<path d="M95.1386 160.809H90.2484C89.8498 160.809 89.5264 160.487 89.5264 160.091V158.779C89.5264 158.383 89.8498 158.061 90.2484 158.061H95.1386C95.5364 158.061 95.8606 158.383 95.8606 158.779V160.091C95.8606 160.487 95.5364 160.809 95.1386 160.809Z" fill="#FEFEFF"/>
<path d="M91.7502 184.4C91.7502 185.991 90.4533 187.282 88.8531 187.282C87.253 187.282 85.9561 185.991 85.9561 184.4C85.9561 182.808 87.253 181.518 88.8531 181.518C90.4533 181.518 91.7502 182.808 91.7502 184.4Z" fill="#FEFEFF"/>
<path d="M95.8613 184.4C95.8613 185.991 94.5636 187.282 92.9635 187.282C91.3633 187.282 90.0664 185.991 90.0664 184.4C90.0664 182.808 91.3633 181.518 92.9635 181.518C94.5636 181.518 95.8613 182.808 95.8613 184.4Z" fill="#FEFEFF"/>
<path d="M95.8612 177.765H47.3477V175.352H95.8612V177.765Z" fill="#FEFEFF"/>
</g>
</svg>
